<svg xmlns="http://www.w3.org/2000/svg" viewBox="0 0 41.91 54.09"><defs><style>.cls-1{fill:#fff}</style></defs><g id="レイヤー_2" data-name="レイヤー 2"><g id="レイヤー_1-2" data-name="レイヤー 1"><circle class="cls-1" cx="26.43" cy="29.15" r="2.35"/><path class="cls-1" d="M16.1 31.5a2.36 2.36 0 10-2.35-2.35 2.36 2.36 0 002.35 2.35z"/><path class="cls-1" d="M31.42 7H17.87V5.8a5.8 5.8 0 00-11.6 0V7H0v47.09h41.91V17.52zM9.85 5.8a2.22 2.22 0 014.44 0V7H9.85zm28.48 44.71H3.59v-39.9h2.68V17a5.8 5.8 0 0011.6 0v-2.1a1.79 1.79 0 10-3.58 0V17a2.22 2.22 0 01-4.44 0v-6.39H29.6v7.65h8l.74.74z"/><path d="M21.31 43.09c10 0 10.79-7.24 10.79-7.24H10.53s1.74 7.24 10.78 7.24z" fill="#ec80a7"/></g></g></svg>