<svg xmlns="http://www.w3.org/2000/svg" viewBox="0 0 41.91 54.09"><defs><style>.cls-1{fill:#ec80a7;}</style></defs><title>logo</title><g id="レイヤー_2" data-name="レイヤー 2"><g id="レイヤー_1-2" data-name="レイヤー 1"><circle cx="26.43" cy="29.15" r="2.35"/><path d="M16.1,31.5a2.36,2.36,0,1,0-2.35-2.35A2.36,2.36,0,0,0,16.1,31.5Z"/><path d="M31.42,7H17.87V5.8a5.8,5.8,0,0,0-11.6,0V7H0V54.09H41.91V17.52ZM9.85,5.8a2.22,2.22,0,0,1,4.44,0V7H9.85ZM38.33,50.51H3.59V10.61H6.27V17a5.8,5.8,0,0,0,11.6,0v-2.1a1.79,1.79,0,1,0-3.58,0V17a2.22,2.22,0,0,1-4.44,0V10.61H29.6v7.65h8l.74.74Z"/><path class="cls-1" d="M21.31,43.09c10,0,10.79-7.24,10.79-7.24H10.53S12.27,43.09,21.31,43.09Z"/></g></g></svg>